<svg width="41" height="41" viewBox="0 0 41 41" fill="none" xmlns="http://www.w3.org/2000/svg">
<g filter="url(#filter0_d_171_551)">
<path d="M20.7204 30C18.3926 30.0095 16.1386 29.1834 14.3684 27.6718C12.5981 26.1602 11.4291 24.0635 11.0739 21.7629C10.7187 19.4624 11.2009 17.1107 12.4328 15.1356C13.6647 13.1605 15.5645 11.693 17.7868 11C17.8626 10.9744 17.9446 10.9733 18.021 10.997C18.0974 11.0207 18.1644 11.068 18.2125 11.132C18.2605 11.196 18.287 11.2736 18.2884 11.3536C18.2897 11.4336 18.2658 11.512 18.22 11.5776C17.2685 13.1378 16.8692 14.9727 17.0863 16.7872C17.3034 18.6017 18.1242 20.2906 19.4168 21.5823C20.7095 22.8741 22.3989 23.6938 24.2136 23.9096C26.0282 24.1255 27.8628 23.7249 29.4224 22.7724C29.4886 22.731 29.566 22.7111 29.6439 22.7152C29.7219 22.7193 29.7967 22.7474 29.8582 22.7956C29.9196 22.8437 29.9647 22.9097 29.9874 22.9844C30.01 23.0591 30.0091 23.139 29.9848 23.2132C29.3679 25.1856 28.1356 26.9086 26.4685 28.1299C24.8014 29.3512 22.787 30.0066 20.7204 30ZM17.08 12.0868C15.7528 12.6787 14.5895 13.5846 13.6904 14.7263C12.7912 15.8679 12.1833 17.2112 11.9189 18.6401C11.6546 20.0691 11.7417 21.5409 12.1729 22.9287C12.604 24.3165 13.3663 25.5785 14.3938 26.6061C15.4214 27.6337 16.6835 28.3959 18.0713 28.8271C19.4591 29.2583 20.9309 29.3454 22.3599 29.0811C23.7888 28.8167 25.132 28.2087 26.2737 27.3096C27.4154 26.4105 28.3212 25.2472 28.9132 23.92C27.2571 24.6858 25.4058 24.925 23.6095 24.6053C21.8131 24.2855 20.1581 23.4223 18.8679 22.1321C17.5777 20.8419 16.7144 19.1869 16.3947 17.3905C16.075 15.5941 16.3142 13.7429 17.08 12.0868Z" fill="#007ACC"/>
<path d="M20.7204 30C18.3926 30.0095 16.1386 29.1834 14.3684 27.6718C12.5981 26.1602 11.4291 24.0635 11.0739 21.7629C10.7187 19.4624 11.2009 17.1107 12.4328 15.1356C13.6647 13.1605 15.5645 11.693 17.7868 11C17.8626 10.9744 17.9446 10.9733 18.021 10.997C18.0974 11.0207 18.1644 11.068 18.2125 11.132C18.2605 11.196 18.287 11.2736 18.2884 11.3536C18.2897 11.4336 18.2658 11.512 18.22 11.5776C17.2685 13.1378 16.8692 14.9727 17.0863 16.7872C17.3034 18.6017 18.1242 20.2906 19.4168 21.5823C20.7095 22.8741 22.3989 23.6938 24.2136 23.9096C26.0282 24.1255 27.8628 23.7249 29.4224 22.7724C29.4886 22.731 29.566 22.7111 29.6439 22.7152C29.7219 22.7193 29.7967 22.7474 29.8582 22.7956C29.9196 22.8437 29.9647 22.9097 29.9874 22.9844C30.01 23.0591 30.0091 23.139 29.9848 23.2132C29.3679 25.1856 28.1356 26.9086 26.4685 28.1299C24.8014 29.3512 22.787 30.0066 20.7204 30ZM17.08 12.0868C15.7528 12.6787 14.5895 13.5846 13.6904 14.7263C12.7912 15.8679 12.1833 17.2112 11.9189 18.6401C11.6546 20.0691 11.7417 21.5409 12.1729 22.9287C12.604 24.3165 13.3663 25.5785 14.3938 26.6061C15.4214 27.6337 16.6835 28.3959 18.0713 28.8271C19.4591 29.2583 20.9309 29.3454 22.3599 29.0811C23.7888 28.8167 25.132 28.2087 26.2737 27.3096C27.4154 26.4105 28.3212 25.2472 28.9132 23.92C27.2571 24.6858 25.4058 24.925 23.6095 24.6053C21.8131 24.2855 20.1581 23.4223 18.8679 22.1321C17.5777 20.8419 16.7144 19.1869 16.3947 17.3905C16.075 15.5941 16.3142 13.7429 17.08 12.0868Z" stroke="#007ACC" stroke-width="1.34"/>
</g>
<defs>
<filter id="filter0_d_171_551" x="0.290039" y="0.309994" width="40.3837" height="40.3601" filterUnits="userSpaceOnUse" color-interpolation-filters="sRGB">
<feFlood flood-opacity="0" result="BackgroundImageFix"/>
<feColorMatrix in="SourceAlpha" type="matrix" values="0 0 0 0 0 0 0 0 0 0 0 0 0 0 0 0 0 0 127 0" result="hardAlpha"/>
<feOffset/>
<feGaussianBlur stdDeviation="5"/>
<feComposite in2="hardAlpha" operator="out"/>
<feColorMatrix type="matrix" values="0 0 0 0 0 0 0 0 0 0.478431 0 0 0 0 0.8 0 0 0 1 0"/>
<feBlend mode="normal" in2="BackgroundImageFix" result="effect1_dropShadow_171_551"/>
<feBlend mode="normal" in="SourceGraphic" in2="effect1_dropShadow_171_551" result="shape"/>
</filter>
</defs>
</svg>
