<svg width="21" height="20" viewBox="0 0 21 20" fill="none" xmlns="http://www.w3.org/2000/svg">
<path d="M10.7204 20C8.39261 20.0095 6.13867 19.1834 4.36843 17.6718C2.59818 16.1602 1.42918 14.0635 1.07397 11.7629C0.718763 9.46238 1.20094 7.11074 2.43284 5.1356C3.66473 3.16046 5.56453 1.69298 7.78681 0.999999C7.86262 0.974374 7.94459 0.973339 8.02102 0.99704C8.09746 1.02074 8.16446 1.06797 8.21248 1.13199C8.2605 1.19601 8.28708 1.27356 8.28843 1.35358C8.28978 1.43359 8.26583 1.51199 8.22001 1.5776C7.26853 3.13783 6.86925 4.97265 7.08631 6.78718C7.30338 8.60171 8.1242 10.2906 9.41685 11.5823C10.7095 12.8741 12.3989 13.6938 14.2136 13.9096C16.0283 14.1255 17.8628 13.7249 19.4224 12.7724C19.4886 12.731 19.566 12.7111 19.644 12.7152C19.7219 12.7193 19.7967 12.7474 19.8582 12.7956C19.9196 12.8437 19.9648 12.9097 19.9874 12.9844C20.0101 13.0591 20.0092 13.139 19.9848 13.2132C19.3679 15.1856 18.1357 16.9086 16.4685 18.1299C14.8014 19.3512 12.787 20.0066 10.7204 20ZM7.08001 2.0868C5.75281 2.67874 4.58951 3.58459 3.69039 4.72626C2.79127 5.86793 2.18332 7.21116 1.91895 8.64012C1.65459 10.0691 1.74175 11.5409 2.17291 12.9287C2.60407 14.3165 3.3663 15.5785 4.39388 16.6061C5.42146 17.6337 6.68354 18.3959 8.07132 18.8271C9.4591 19.2583 10.9309 19.3454 12.3599 19.0811C13.7888 18.8167 15.1321 18.2087 16.2737 17.3096C17.4154 16.4105 18.3213 15.2472 18.9132 13.92C17.2571 14.6858 15.4059 14.925 13.6095 14.6053C11.8131 14.2855 10.1581 13.4223 8.8679 12.1321C7.57771 10.8419 6.71447 9.1869 6.39475 7.39052C6.07502 5.59415 6.31421 3.74292 7.08001 2.0868Z" fill="#C4C4C4"/>
</svg>
