<svg width="21" height="21" viewBox="0 0 21 21" fill="none" xmlns="http://www.w3.org/2000/svg">
<path fill-rule="evenodd" clip-rule="evenodd" d="M10.5291 16C13.5666 16 16.0291 13.5376 16.0291 10.5C16.0291 7.46243 13.5666 5 10.5291 5C7.49149 5 5.02905 7.46243 5.02905 10.5C5.02905 13.5376 7.49149 16 10.5291 16ZM10.5291 15C13.0143 15 15.0291 12.9853 15.0291 10.5C15.0291 8.01472 13.0143 6 10.5291 6C8.04377 6 6.02905 8.01472 6.02905 10.5C6.02905 12.9853 8.04377 15 10.5291 15ZM10.5291 1C10.2529 1 10.0291 1.21575 10.0291 1.49539V3.50461C10.0291 3.77821 10.261 4 10.5291 4C10.8052 4 11.0291 3.78425 11.0291 3.50461V1.49539C11.0291 1.22179 10.7971 1 10.5291 1ZM17.2671 3.79099C17.0718 3.59573 16.761 3.59 16.5633 3.78773L15.1425 5.20847C14.9491 5.40193 14.9562 5.72276 15.1458 5.91232C15.3411 6.10758 15.6519 6.11331 15.8496 5.91558L17.2704 4.49484C17.4638 4.30138 17.4567 3.98055 17.2671 3.79099ZM20.0581 10.5291C20.0581 10.2529 19.8424 10.0291 19.5627 10.0291H17.5535C17.2799 10.0291 17.0581 10.261 17.0581 10.5291C17.0581 10.8052 17.2739 11.0291 17.5535 11.0291H19.5627C19.8363 11.0291 20.0581 10.7971 20.0581 10.5291ZM17.2671 17.2671C17.4624 17.0718 17.4681 16.761 17.2704 16.5633L15.8496 15.1425C15.6562 14.9491 15.3353 14.9562 15.1458 15.1458C14.9505 15.3411 14.9448 15.6519 15.1425 15.8496L16.5633 17.2704C16.7567 17.4638 17.0776 17.4567 17.2671 17.2671ZM10.5291 20.0581C10.8052 20.0581 11.0291 19.8424 11.0291 19.5627V17.5535C11.0291 17.2799 10.7971 17.0581 10.5291 17.0581C10.2529 17.0581 10.0291 17.2739 10.0291 17.5535V19.5627C10.0291 19.8363 10.261 20.0581 10.5291 20.0581ZM3.79099 17.2671C3.98626 17.4624 4.29711 17.4681 4.49484 17.2704L5.91558 15.8496C6.10904 15.6562 6.10187 15.3353 5.91232 15.1458C5.71705 14.9505 5.4062 14.9448 5.20847 15.1425L3.78773 16.5633C3.59427 16.7567 3.60144 17.0776 3.79099 17.2671ZM1 10.5291C1 10.8052 1.21575 11.0291 1.49539 11.0291H3.50461C3.77821 11.0291 4 10.7971 4 10.5291C4 10.2529 3.78425 10.0291 3.50461 10.0291H1.49539C1.22179 10.0291 1 10.261 1 10.5291ZM3.79099 3.79099C3.59573 3.98626 3.59 4.29711 3.78773 4.49484L5.20847 5.91558C5.40193 6.10904 5.72276 6.10187 5.91232 5.91232C6.10758 5.71705 6.11331 5.4062 5.91558 5.20847L4.49484 3.78773C4.30138 3.59427 3.98055 3.60144 3.79099 3.79099Z" fill="#007ACC" stroke="#007ACC"/>
</svg>
