<svg width="20" height="20" viewBox="0 0 20 20" fill="none" xmlns="http://www.w3.org/2000/svg">
<path fill-rule="evenodd" clip-rule="evenodd" d="M9.52905 15C12.5666 15 15.0291 12.5376 15.0291 9.5C15.0291 6.46243 12.5666 4 9.52905 4C6.49149 4 4.02905 6.46243 4.02905 9.5C4.02905 12.5376 6.49149 15 9.52905 15ZM9.52905 14C12.0143 14 14.0291 11.9853 14.0291 9.5C14.0291 7.01472 12.0143 5 9.52905 5C7.04377 5 5.02905 7.01472 5.02905 9.5C5.02905 11.9853 7.04377 14 9.52905 14ZM9.52905 0C9.25291 0 9.02905 0.215753 9.02905 0.495389V2.50461C9.02905 2.77821 9.26099 3 9.52905 3C9.80519 3 10.0291 2.78425 10.0291 2.50461V0.495389C10.0291 0.221793 9.79712 0 9.52905 0ZM16.2671 2.79099C16.0718 2.59573 15.761 2.59 15.5633 2.78773L14.1425 4.20847C13.9491 4.40193 13.9562 4.72276 14.1458 4.91232C14.3411 5.10758 14.6519 5.11331 14.8496 4.91558L16.2704 3.49484C16.4638 3.30138 16.4567 2.98055 16.2671 2.79099ZM19.0581 9.52905C19.0581 9.25291 18.8424 9.02905 18.5627 9.02905H16.5535C16.2799 9.02905 16.0581 9.26099 16.0581 9.52905C16.0581 9.80519 16.2739 10.0291 16.5535 10.0291H18.5627C18.8363 10.0291 19.0581 9.79712 19.0581 9.52905ZM16.2671 16.2671C16.4624 16.0718 16.4681 15.761 16.2704 15.5633L14.8496 14.1425C14.6562 13.9491 14.3353 13.9562 14.1458 14.1458C13.9505 14.3411 13.9448 14.6519 14.1425 14.8496L15.5633 16.2704C15.7567 16.4638 16.0776 16.4567 16.2671 16.2671ZM9.52905 19.0581C9.80519 19.0581 10.0291 18.8424 10.0291 18.5627V16.5535C10.0291 16.2799 9.79712 16.0581 9.52905 16.0581C9.25291 16.0581 9.02905 16.2739 9.02905 16.5535V18.5627C9.02905 18.8363 9.26099 19.0581 9.52905 19.0581ZM2.79099 16.2671C2.98626 16.4624 3.29711 16.4681 3.49484 16.2704L4.91558 14.8496C5.10904 14.6562 5.10187 14.3353 4.91232 14.1458C4.71705 13.9505 4.4062 13.9448 4.20847 14.1425L2.78773 15.5633C2.59427 15.7567 2.60144 16.0776 2.79099 16.2671ZM0 9.52905C0 9.80519 0.215753 10.0291 0.495389 10.0291H2.50461C2.77821 10.0291 3 9.79712 3 9.52905C3 9.25291 2.78425 9.02905 2.50461 9.02905H0.495389C0.221793 9.02905 0 9.26099 0 9.52905ZM2.79099 2.79099C2.59573 2.98626 2.59 3.29711 2.78773 3.49484L4.20847 4.91558C4.40193 5.10904 4.72276 5.10187 4.91232 4.91232C5.10758 4.71705 5.11331 4.4062 4.91558 4.20847L3.49484 2.78773C3.30138 2.59427 2.98055 2.60144 2.79099 2.79099Z" fill="#C4C4C4"/>
</svg>
